<?xml version="1.0" encoding="iso-8859-1"?>
<!-- Generator: Adobe Illustrator 18.1.1, SVG Export Plug-In . SVG Version: 6.00 Build 0)  -->
<svg version="1.1" id="Capa_1" xmlns="http://www.w3.org/2000/svg" xmlns:xlink="http://www.w3.org/1999/xlink" x="0px" y="0px"
	 viewBox="0 0 412.816 412.816" style="enable-background:new 0 0 412.816 412.816;" xml:space="preserve">
<path d="M412.816,273.722h-19.103v-15.286c0-16.421-13.358-29.777-29.776-29.777h-8.151v-48.389
	c0-82.368-67.011-149.377-149.377-149.377S57.03,97.903,57.03,180.272v48.389H48.88c-16.419,0-29.776,13.356-29.776,29.777v15.285H0
	v63.134h19.103v15.286c0,16.421,13.358,29.776,29.776,29.776h42.39c16.421,0,29.778-13.355,29.778-29.776v-93.704
	c0-16.421-13.358-29.777-29.778-29.777h-8.151v-48.389c0-67.983,55.308-123.289,123.289-123.289s123.289,55.306,123.289,123.289
	v48.389h-8.151c-16.421,0-29.779,13.356-29.779,29.777v93.704c0,16.421,13.358,29.78,29.779,29.78h42.39
	c16.419,0,29.776-13.359,29.776-29.78v-15.285h19.103V273.722z M94.959,258.437v93.704c0,2.032-1.656,3.688-3.69,3.688H48.88
	c-2.034,0-3.688-1.656-3.688-3.688v-93.704c0-2.032,1.654-3.688,3.688-3.688h42.39C93.303,254.749,94.959,256.405,94.959,258.437z
	 M367.624,352.141c0,2.036-1.654,3.692-3.688,3.692h-42.39c-2.034,0-3.69-1.656-3.69-3.692v-93.704c0-2.032,1.656-3.688,3.69-3.688
	h42.39c2.034,0,3.688,1.656,3.688,3.688V352.141z"/>
<g>
</g>
<g>
</g>
<g>
</g>
<g>
</g>
<g>
</g>
<g>
</g>
<g>
</g>
<g>
</g>
<g>
</g>
<g>
</g>
<g>
</g>
<g>
</g>
<g>
</g>
<g>
</g>
<g>
</g>
</svg>
